<svg width="30" height="30" viewBox="0 0 30 30" fill="none" xmlns="http://www.w3.org/2000/svg">
<rect width="30" height="30" rx="15" fill="#6DC067"/>
<path d="M11.8759 15C11.8759 13.2742 13.2745 11.8747 15.0004 11.8747C16.7262 11.8747 18.1256 13.2742 18.1256 15C18.1256 16.7258 16.7262 18.1252 15.0004 18.1252C13.2745 18.1252 11.8759 16.7258 11.8759 15ZM10.1864 15C10.1864 17.6587 12.3416 19.8139 15.0004 19.8139C17.6591 19.8139 19.8143 17.6587 19.8143 15C19.8143 12.3412 17.6591 10.186 15.0004 10.186C12.3416 10.186 10.1864 12.3412 10.1864 15ZM18.8799 9.99517C18.8798 10.2177 18.9457 10.4352 19.0692 10.6203C19.1928 10.8053 19.3684 10.9496 19.574 11.0348C19.7795 11.12 20.0057 11.1424 20.2239 11.0991C20.4422 11.0558 20.6427 10.9487 20.8001 10.7914C20.9575 10.6342 21.0647 10.4338 21.1082 10.2155C21.1517 9.99733 21.1295 9.77112 21.0444 9.56552C20.9594 9.35992 20.8152 9.18416 20.6303 9.06047C20.4453 8.93678 20.2279 8.87071 20.0053 8.87063H20.0049C19.7067 8.87076 19.4207 8.98927 19.2097 9.20012C18.9988 9.41098 18.8802 9.69693 18.8799 9.99517ZM11.2129 22.631C10.2988 22.5894 9.80205 22.4371 9.4719 22.3085C9.0342 22.1381 8.7219 21.9352 8.39355 21.6073C8.0652 21.2794 7.86195 20.9674 7.6923 20.5297C7.5636 20.1997 7.41135 19.7027 7.3698 18.7887C7.32435 17.8005 7.31527 17.5036 7.31527 15.0001C7.31527 12.4965 7.3251 12.2005 7.3698 11.2114C7.41142 10.2974 7.5648 9.80145 7.6923 9.47047C7.8627 9.03277 8.06565 8.72047 8.39355 8.39213C8.72145 8.06378 9.03345 7.86053 9.4719 7.69088C9.8019 7.56218 10.2988 7.40992 11.2129 7.36837C12.2011 7.32292 12.4979 7.31385 15.0004 7.31385C17.5028 7.31385 17.8 7.32367 18.789 7.36837C19.703 7.41 20.199 7.56337 20.53 7.69088C20.9677 7.86053 21.28 8.06422 21.6083 8.39213C21.9367 8.72003 22.1392 9.03277 22.3096 9.47047C22.4383 9.80047 22.5905 10.2974 22.6321 11.2114C22.6775 12.2005 22.6866 12.4965 22.6866 15.0001C22.6866 17.5036 22.6775 17.7997 22.6321 18.7887C22.5904 19.7027 22.4374 20.1995 22.3096 20.5297C22.1392 20.9674 21.9362 21.2797 21.6083 21.6073C21.2804 21.9349 20.9677 22.1381 20.53 22.3085C20.2 22.4372 19.703 22.5895 18.789 22.631C17.8008 22.6765 17.5039 22.6855 15.0004 22.6855C12.4968 22.6855 12.2008 22.6765 11.2129 22.631ZM11.1352 5.68177C10.1372 5.72722 9.45525 5.88547 8.85967 6.11722C8.24287 6.35655 7.72072 6.67762 7.19895 7.19857C6.67717 7.71952 6.35692 8.2425 6.1176 8.8593C5.88585 9.45525 5.7276 10.1368 5.68215 11.1349C5.63595 12.1345 5.62537 12.4541 5.62537 15C5.62537 17.5459 5.63595 17.8655 5.68215 18.8651C5.7276 19.8632 5.88585 20.5448 6.1176 21.1407C6.35692 21.7571 6.67725 22.2807 7.19895 22.8014C7.72065 23.3221 8.24287 23.6428 8.85967 23.8828C9.45637 24.1145 10.1372 24.2728 11.1352 24.3182C12.1354 24.3637 12.4544 24.375 15.0004 24.375C17.5463 24.375 17.8659 24.3644 18.8655 24.3182C19.8636 24.2728 20.5451 24.1145 21.1411 23.8828C21.7575 23.6428 22.28 23.3224 22.8018 22.8014C23.3236 22.2805 23.6431 21.7571 23.8832 21.1407C24.1149 20.5448 24.2739 19.8631 24.3186 18.8651C24.364 17.8648 24.3746 17.5459 24.3746 15C24.3746 12.4541 24.364 12.1345 24.3186 11.1349C24.2731 10.1368 24.1149 9.45487 23.8832 8.8593C23.6431 8.24287 23.3227 7.72035 22.8018 7.19857C22.2808 6.6768 21.7575 6.35655 21.1418 6.11722C20.5451 5.88547 19.8635 5.72648 18.8662 5.68177C17.8666 5.63633 17.5471 5.625 15.0011 5.625C12.4552 5.625 12.1354 5.63558 11.1352 5.68177Z" fill="white"/>
</svg>
