<svg id="Слой_1" data-name="Слой 1" xmlns="http://www.w3.org/2000/svg" viewBox="0 0 176.08 48.05"><defs><style>.cls-1{fill:#fff;}.cls-2{fill:#6dc067;}</style></defs><title>logo</title><path class="cls-1" d="M20.53,8.53c0-.94-.4-1.71-1.76-1.76s-2.62,1.4-3.64,2.6A8.27,8.27,0,0,0,13,15.48c.2,2,1.68,4.24,4,4.24,3.48,0,6.43-4.85,6.12-8.07a3.15,3.15,0,0,0-2.58-3.12Zm-1.16,1.68a2,2,0,0,1,.28.83c.2,2.08-1.43,5.69-2.67,5.69-.38,0-.45-.46-.47-.66-.2-2.11,1.22-5,2.86-5.86Z"/><path class="cls-1" d="M35.09,12.66c0,1-.52,3.7-.55,5,0,1.64,1.3,2.54,2.92,2.54,1.27,0,.84-2.05.8-3.47a69.49,69.49,0,0,1,.24-7.3,5.56,5.56,0,0,0,0-.72c-.18-2-2.65-2.73-3.55-1.32-.64,1-1.53,3.09-2.84,5.25.06-2.26.3-3.15.3-3.7,0-3.49-2.75-2.46-3.8-.59-.36.64-.76,1.45-1.68,3-1.8,2.94-2.66,4-3.57,5.35-1.7,2.43,1,4.77,2.81,2.38a40.94,40.94,0,0,0,3.28-6.43c-.25,4-.48,4.73-.42,5.44.13,1.57,2.41,2.5,3.09,1,.28-.53.38-1,1.21-2.94A25.88,25.88,0,0,1,35,12.63l.11,0Z"/><path class="cls-1" d="M8.94,10.61A14.34,14.34,0,0,0,14,5.79c1.13-1.9-.24-5.62-2.24-2.92A19.28,19.28,0,0,1,7.23,7.66c.94-3.12,1.24-4,1.19-4.49C8.19.75,5.15,1.92,4.57,3.55,3.19,7.38,2.67,10,.38,15.37c-1.57,3.72,2.13,5.9,3.15,3.15.76-2.06.7-2.25,2.06-5.75a34.91,34.91,0,0,0,2.47,6c1,1.86,4.29,2.38,4,0,0-.51-.67-1.17-1.12-2.13a45.9,45.9,0,0,1-2.05-6Z"/><path class="cls-1" d="M67.78,15.43c-.25-2.54,1.83-6.29,2.61-6.29.16,0,.38.25.42.66a1.93,1.93,0,0,1,0,.55c-.43,2.81,3.23,1.29,3-.93a2.84,2.84,0,0,0-3-2.77c-3.68,0-7.06,5.18-6.69,9a4.11,4.11,0,0,0,4,4.09,6.89,6.89,0,0,0,3.24-1.14c1.73-1.24,1.78-4.69-1.1-2.39a3.07,3.07,0,0,1-1.53.64c-.82,0-1-.89-1-1.4Z"/><path class="cls-1" d="M61.61,18.35a19.61,19.61,0,0,1,.4-4.82c.85-3.76,1.87-4.49,1.78-5.48-.16-1.58-2.68-2.53-3.41-.56-1.87-2-5.37,1.65-6.41,3a7.45,7.45,0,0,0-1.72,5.25c.18,1.9,1.27,4,3.23,4A3.35,3.35,0,0,0,58.08,18c-.65,2.25,3.6,3.23,3.53.31ZM59.45,10c-.94,4.72-2.67,6.38-3.2,6.38-.17,0-.41-.14-.46-.67-.19-2,1.89-5,3.66-5.71Z"/><path class="cls-1" d="M46.14,8.76a4.33,4.33,0,0,0,.23-1.24,1.31,1.31,0,0,0-1.72-1.16C43.1,6.72,43,8.27,42.71,9.55,42,12.4,41,14.36,40.56,15.65c-1.15,3.6,2.7,5.39,3.25,2.86.91-3.68,1.46-5.62,1.81-6.68a5.69,5.69,0,0,1,2-1.32c.18,0,.19.13.21.3,0,.44-.3.61-1,2.74-.19.63-.46,1.56-.66,2.47-.25,1.17-.63,2.6.58,3.51,1.89,1.42,2.37-.51,2.73-2.05.19-.78.4-1.55.59-2.21.71-2.43,1.47-3.73,1.35-4.94-.08-.81-1.07-3.45-2.67-3.45-.63,0-1.28.38-2.68,1.88Z"/><path class="cls-1" d="M115.78,8.52A1.58,1.58,0,0,0,114,6.76c-1.24,0-2.62,1.41-3.65,2.6a8.26,8.26,0,0,0-2.12,6.11c.19,2,1.68,4.24,4,4.24,3.48,0,6.44-4.85,6.13-8.07a3.18,3.18,0,0,0-2.59-3.12Zm-1.16,1.68a2.08,2.08,0,0,1,.29.83c.2,2.08-1.43,5.69-2.68,5.69-.38,0-.45-.46-.47-.66-.2-2.11,1.22-5,2.86-5.86Z"/><path class="cls-1" d="M139,8.52c0-.94-.4-1.71-1.76-1.76s-2.62,1.41-3.64,2.6a8.22,8.22,0,0,0-2.12,6.11c.19,2,1.67,4.24,4,4.24,3.48,0,6.43-4.85,6.12-8.07A3.16,3.16,0,0,0,139,8.52Zm-1.16,1.68a2.08,2.08,0,0,1,.29.83c.2,2.08-1.43,5.69-2.68,5.69-.38,0-.45-.46-.47-.66-.2-2.11,1.22-5,2.86-5.86Z"/><path class="cls-1" d="M171.51,14.55c-.27,1.59-.47,2.46-.53,3.09-.16,2,3.39,3,3.6.79,0-.35,0-.71,0-1a45.35,45.35,0,0,1,1.25-7.52c.5-1.37.22-3.25-1.8-3.25-.51,0-.9.54-1.08,1a1.11,1.11,0,0,0-1-1c-1.24,0-6.13,2-5.81,5.27a3,3,0,0,0,2.56,2.76A20.8,20.8,0,0,1,165,17.09c-1.89,1.34,1.25,4.16,3.24,2.08a19.59,19.59,0,0,0,3-4.55l.31-.07Zm1-4.78c-.17.67-.35,1.31-.5,2a4.07,4.07,0,0,1-1.79.7c-.67,0-.73-.35-.75-.62-.08-.8,1.1-1.61,3-2.06Z"/><path class="cls-1" d="M155.93,12c-3,1.37-2,3.76-.86,3.48a4.71,4.71,0,0,0-.27,1.93c.12,1.26,1.78,2.33,3.14,2.33,3,0,6.15-2.84,5.93-5.1a3.86,3.86,0,0,0-3.56-3.2,6.15,6.15,0,0,0-.73.06c.85-2.59,1-3,1.15-3.38.76-2.31-3.15-1.55-3.72.08-.28.81-.79,2.56-1.08,3.8Zm2.65,2.67a4.33,4.33,0,0,1,1.4-.34c.21,0,.55,0,.59.43a2.7,2.7,0,0,1-2,2.07c-.3,0-.36-.28-.37-.46a5,5,0,0,1,.38-1.7Z"/><path class="cls-1" d="M151.51,13.06c1.74-1.39,2-2.74,2-3.7A3.26,3.26,0,0,0,150,6.7c-3.45,0-7.27,4.59-6.86,8.9a4.65,4.65,0,0,0,4.72,4.16A4.41,4.41,0,0,0,152.33,15a3.72,3.72,0,0,0-.82-2Zm-4.44.64c.57.74,1,1,1.77.75a2,2,0,0,1,.23.59,1.51,1.51,0,0,1-1.37,1.67,1,1,0,0,1-1.07-1,4.17,4.17,0,0,1,.44-2.06Zm.64-2c.53-1.23,1.5-2.7,2.28-2.7a.5.5,0,0,1,.54.47c.08.83-1.59,1.92-2.82,2.23Z"/><path class="cls-1" d="M122.59,18.57a1.51,1.51,0,0,0,1.31,1.14,2.92,2.92,0,0,0,1.55-.61c2.23-1.51,4.93-5.52,4.67-8.27C129.94,9,128.68,6.75,127,6.75a3.57,3.57,0,0,0-1.59.35c.37-1.46,0-2.06-.57-2.12-1-.1-2.37.46-3,2.55C120,8,119.59,9.88,121,11.39c-2.49,8.2-2.33,7.15-2.93,8.91-1.11,3.17,2.29,5.47,3.41,1.85a24.18,24.18,0,0,0,.76-2.59c.14-.46.19-.66.31-1Zm.73-2.57c.19-.89.38-1.53,1.55-5.61a2.7,2.7,0,0,1,1.35-.42c.51,0,.75.23.81.78.14,1.46-1.5,4.19-3.71,5.25Z"/><path class="cls-1" d="M103.64,7.69a3,3,0,0,0-1.79-.92c-2,0-6.42,4.72-6,9.31.29,3,2.4,3.63,3.47,3.63,3.22,0,8.54-4,7.74-12.23a10.72,10.72,0,0,0-3-6.22C101.9-.9,98.46.5,100.84,2.88a12.44,12.44,0,0,1,1.59,1.79,6.36,6.36,0,0,1,1.21,3ZM103.38,10c-.42,3.58-2.66,6.42-3.67,6.42-.36,0-.39-.33-.41-.56-.21-2.16,2.12-5.15,4.08-5.86Z"/><path class="cls-1" d="M92.32,8.81c.93-.42,3.43-1.7,3.18-4.27A4.93,4.93,0,0,0,90.27,0a5.83,5.83,0,0,0-4.09,1.42c-1.82,1.82-.25,5.37,2.44,3.15a3.13,3.13,0,0,1,2.09-.83c.76,0,.89.47.9.64.06.61-.75,2-3.28,3.26-3.37-.31-5.15,4.48-.7,4,.77,0,1.1-.08,1.36-.08a1.32,1.32,0,0,1,1.29,1.31c.12,1.17-2.41,3.29-3.89,3.29a2,2,0,0,1-1.29-.67A1.81,1.81,0,0,0,82,17c.11,1.11,1.71,2.7,4.3,2.7,3,0,8.88-2.7,8.36-8.14a2.78,2.78,0,0,0-2.3-2.76Z"/><path class="cls-2" d="M25.8,33.79a7.22,7.22,0,0,1,2.57.38,4,4,0,0,1,1.6,1,3.52,3.52,0,0,1,.81,1.51A7.07,7.07,0,0,1,31,38.52a7.57,7.57,0,0,1-.21,1.73A4.34,4.34,0,0,1,30,41.88a4.21,4.21,0,0,1-1.56,1.22,6,6,0,0,1-2.54.47,11.35,11.35,0,0,1-1.72-.13A8.58,8.58,0,0,1,22.52,43L23,40.67c.16,0,.34.07.54.1l.6.07.54,0h.39c.27,0,.53,0,.77,0a2.07,2.07,0,0,0,.64-.16,1.55,1.55,0,0,0,.5-.38,1.65,1.65,0,0,0,.31-.68l-2.79.05V37.45l2.74,0A1.18,1.18,0,0,0,27,37a1.42,1.42,0,0,0-.45-.32,2.16,2.16,0,0,0-.58-.16,4.65,4.65,0,0,0-.66,0,11.53,11.53,0,0,0-1.83.16l-.39-2.41a11.22,11.22,0,0,1,1.4-.29A9.34,9.34,0,0,1,25.8,33.79Z"/><path class="cls-2" d="M39.23,38.58a3.36,3.36,0,0,1,.6.32,1.82,1.82,0,0,1,.4.38,1.79,1.79,0,0,1,.27.44l.18.5.92,3.19H38.13l-.74-2.73a1.19,1.19,0,0,0-.47-.71,1.38,1.38,0,0,0-.78-.21h-.46v3.65H32.36V34.06h3.32v3.33h.39a1.5,1.5,0,0,0,.76-.18,1.27,1.27,0,0,0,.49-.77L38,34.06H41.3L40.49,37a2.73,2.73,0,0,1-.47.91,1.81,1.81,0,0,1-.79.62Z"/><path class="cls-2" d="M52,38.67a5.86,5.86,0,0,1-.32,1.95,4.28,4.28,0,0,1-.95,1.56,4.47,4.47,0,0,1-1.58,1,6.93,6.93,0,0,1-4.41,0,4.21,4.21,0,0,1-2.52-2.59,6.13,6.13,0,0,1,0-3.91,4.3,4.3,0,0,1,.95-1.53,4.38,4.38,0,0,1,1.57-1,6.76,6.76,0,0,1,4.41,0,4.42,4.42,0,0,1,1.58,1,4.16,4.16,0,0,1,.95,1.53A5.88,5.88,0,0,1,52,38.67Zm-3.63,0a6.45,6.45,0,0,0-.07-1,2.45,2.45,0,0,0-.23-.79,1.32,1.32,0,0,0-.43-.5,1.15,1.15,0,0,0-.69-.19,1.26,1.26,0,0,0-.73.2,1.29,1.29,0,0,0-.43.54,2.68,2.68,0,0,0-.22.8,7.27,7.27,0,0,0-.06,1,8.38,8.38,0,0,0,.06,1,2.51,2.51,0,0,0,.22.81,1.2,1.2,0,0,0,.43.51,1.26,1.26,0,0,0,.73.19,1.31,1.31,0,0,0,.71-.18,1.2,1.2,0,0,0,.43-.51,2.81,2.81,0,0,0,.22-.8A8.72,8.72,0,0,0,48.35,38.67Z"/><path class="cls-1" d="M61.6,37.12l-.68,1.72-.38.88-.42,1-.42,1c-.13.32-.26.62-.38.88H57.68l-.38-.91-.41-1-.42-1c-.14-.33-.27-.63-.4-.9l-.59-1.56h0V40.3c0,.56,0,1.12,0,1.66v1.45H53.5V34.1H56l1.22,3,.3.78c.12.28.23.58.35.88s.23.6.34.89.21.55.31.77h.11l.66-1.64q.33-.86.66-1.65c.09-.19.19-.42.31-.69l.33-.84c.12-.28.23-.56.34-.83s.22-.5.31-.69h2.38v9.31H61.64V37.12Z"/><path class="cls-1" d="M71.4,43.41l-.65-2.13h-3.4l-.67,2.13h-2l3.17-9.31h2.52l3.08,9.31Zm-1.75-5.94-.54-2H69l-.57,2.09-.69,2.39h2.56Z"/><path class="cls-1" d="M81.29,36.94a3.61,3.61,0,0,1-.16,1,2.7,2.7,0,0,1-.53.93,3,3,0,0,1-.94.68,3.51,3.51,0,0,1-1.41.26H76.56v3.58h-2V34.09h3.54a3.3,3.3,0,0,1,2.4.77A2.76,2.76,0,0,1,81.29,36.94Zm-4.73-1.43v3h1.31a1.88,1.88,0,0,0,.53-.07,1.14,1.14,0,0,0,.44-.25,1.41,1.41,0,0,0,.3-.46,1.78,1.78,0,0,0,.12-.69,1.4,1.4,0,0,0-.42-1.14,1.54,1.54,0,0,0-1-.34Z"/><path class="cls-1" d="M88,38.5a1.71,1.71,0,0,1,.58.26,2,2,0,0,1,.41.4,2.12,2.12,0,0,1,.27.49c.07.17.13.35.19.53l.86,3.23h-2l-.79-2.86a2,2,0,0,0-.53-1,1.55,1.55,0,0,0-1.08-.33H84.61v4.16h-2v-9.3h2v3.66h1.15a1.82,1.82,0,0,0,.45-.05,1.16,1.16,0,0,0,.43-.18,1.27,1.27,0,0,0,.37-.39,1.87,1.87,0,0,0,.28-.65l.62-2.37h1.93l-.68,2.67a3.31,3.31,0,0,1-.45,1,1.84,1.84,0,0,1-.74.63Z"/><path class="cls-1" d="M91.52,43.41V34.09h6.42v1.42h-4.4v2.36h3.7v1.32h-3.7V42h4.59v1.42Z"/><path class="cls-1" d="M101.9,43.41V35.54h-3V34.09h7.89v1.45h-2.94v7.87Z"/><path class="cls-2" d="M144.18,29.31a9.37,9.37,0,1,1-9.37,9.37,9.36,9.36,0,0,1,9.37-9.37Z"/><path class="cls-1" d="M144.18,29.68a9,9,0,1,1-9,9,9,9,0,0,1,9-9Z"/><path class="cls-2" d="M150.05,38.8a4.54,4.54,0,0,0-.07-.86,1.78,1.78,0,0,0-.25-.66,1.25,1.25,0,0,0-.48-.43,1.5,1.5,0,0,0-2,.47A1.94,1.94,0,0,0,147,38a4.09,4.09,0,0,0-.08.8,4.63,4.63,0,0,0,.08.88,1.91,1.91,0,0,0,.25.67,1.07,1.07,0,0,0,.47.42,1.6,1.6,0,0,0,.74.15,1.54,1.54,0,0,0,.75-.17,1.41,1.41,0,0,0,.49-.45,2,2,0,0,0,.26-.67,4.21,4.21,0,0,0,.07-.81Zm1.28-.07a4.51,4.51,0,0,1-.18,1.33,2.63,2.63,0,0,1-.56,1,2.44,2.44,0,0,1-.9.63,3.41,3.41,0,0,1-1.25.21,3.67,3.67,0,0,1-1.21-.18,2.08,2.08,0,0,1-.87-.56,2.36,2.36,0,0,1-.52-.95,4.66,4.66,0,0,1-.17-1.37,4.46,4.46,0,0,1,.18-1.31,2.68,2.68,0,0,1,.55-1,2.36,2.36,0,0,1,.91-.63,3.37,3.37,0,0,1,1.25-.21,3.69,3.69,0,0,1,1.2.18,2,2,0,0,1,.86.55,2.31,2.31,0,0,1,.53,1,4.43,4.43,0,0,1,.18,1.34Zm-5.93,2.16a1,1,0,0,1,0,.19.46.46,0,0,1,0,.14.23.23,0,0,1,0,.1.46.46,0,0,1-.07.1.85.85,0,0,1-.2.13,1.65,1.65,0,0,1-.35.16,2.77,2.77,0,0,1-.48.13,3.61,3.61,0,0,1-.59,0,3,3,0,0,1-1.11-.19,2.11,2.11,0,0,1-.84-.56,2.58,2.58,0,0,1-.53-1,4.26,4.26,0,0,1-.19-1.31,4,4,0,0,1,.21-1.35,2.65,2.65,0,0,1,.57-1,2.33,2.33,0,0,1,.87-.61,3,3,0,0,1,1.13-.21,2.61,2.61,0,0,1,.48,0,2.71,2.71,0,0,1,.43.1A2.29,2.29,0,0,1,145,36a1.33,1.33,0,0,1,.22.15.31.31,0,0,1,.08.1.36.36,0,0,1,0,.11.61.61,0,0,1,0,.15,1.41,1.41,0,0,1,0,.22,1.77,1.77,0,0,1,0,.24.57.57,0,0,1,0,.15.2.2,0,0,1-.06.09.09.09,0,0,1-.07,0,.34.34,0,0,1-.18-.08,1.58,1.58,0,0,0-.27-.18,1.85,1.85,0,0,0-.4-.18,1.61,1.61,0,0,0-.56-.08,1.47,1.47,0,0,0-.64.14,1.44,1.44,0,0,0-.47.42,2.05,2.05,0,0,0-.3.65,3.35,3.35,0,0,0-.1.87,3.52,3.52,0,0,0,.1.91,1.83,1.83,0,0,0,.32.64,1.24,1.24,0,0,0,.48.37,1.62,1.62,0,0,0,.64.12,1.86,1.86,0,0,0,.56-.07,4.27,4.27,0,0,0,.41-.17l.27-.17a.35.35,0,0,1,.17-.07h.07a.16.16,0,0,1,.05.08l0,.15a2.1,2.1,0,0,1,0,.27Zm-4.6.43a1.41,1.41,0,0,1,0,.22q0,.09,0,.15l-.06.08a.12.12,0,0,1-.08,0h-3a.37.37,0,0,1-.26-.09.35.35,0,0,1-.11-.29V36.19a.37.37,0,0,1,.11-.29.37.37,0,0,1,.26-.09h3l.08,0a.19.19,0,0,1,0,.09.39.39,0,0,1,0,.14c0,.06,0,.14,0,.23s0,.16,0,.22a.54.54,0,0,1,0,.15.16.16,0,0,1,0,.08.12.12,0,0,1-.08,0h-2.13v1.46h1.8a.11.11,0,0,1,.08,0,.28.28,0,0,1,.06.08,1.06,1.06,0,0,1,0,.14,1.48,1.48,0,0,1,0,.22,1.35,1.35,0,0,1,0,.22,1.06,1.06,0,0,1,0,.14.18.18,0,0,1-.06.08.11.11,0,0,1-.08,0h-1.8v1.69h2.15a.13.13,0,0,1,.08,0,.18.18,0,0,1,.06.08s0,.08,0,.14a1.55,1.55,0,0,1,0,.23Z"/><path class="cls-2" d="M142.73,32a2.22,2.22,0,0,0-1,2.07.17.17,0,0,0,0,.07c-.17.21-.26.34-.26.34s-.1.15,0,.21a.12.12,0,0,0,.16,0,3.56,3.56,0,0,1,.22-.34.57.57,0,0,0,.13.08,3.22,3.22,0,0,0,1.64.24,3.68,3.68,0,0,0,2.48-1.79,1.08,1.08,0,0,1,.52-.43,1.06,1.06,0,0,1,.66.07A3.68,3.68,0,0,0,142.73,32Zm-.87,2a4.45,4.45,0,0,1,5-1.7A4.85,4.85,0,0,0,141.86,33.92Z"/><path class="cls-2" d="M123,29.31a9.37,9.37,0,1,1-9.38,9.37A9.37,9.37,0,0,1,123,29.31Z"/><path class="cls-1" d="M128.51,38.73a5.54,5.54,0,0,0-.07-.86,1.91,1.91,0,0,0-.26-.67,1.27,1.27,0,0,0-.47-.42,1.67,1.67,0,0,0-.75-.15,1.44,1.44,0,0,0-.75.17,1.3,1.3,0,0,0-.48.45,1.77,1.77,0,0,0-.27.66,4.11,4.11,0,0,0-.07.8,4.69,4.69,0,0,0,.07.88,1.77,1.77,0,0,0,.25.67,1.21,1.21,0,0,0,.47.43,1.67,1.67,0,0,0,.75.15,1.54,1.54,0,0,0,.75-.17,1.27,1.27,0,0,0,.49-.46,1.91,1.91,0,0,0,.26-.67,4.12,4.12,0,0,0,.08-.81Zm1.28-.07A4.25,4.25,0,0,1,129.6,40a2.56,2.56,0,0,1-.55,1,2.44,2.44,0,0,1-.9.63,3.5,3.5,0,0,1-1.26.21,3.78,3.78,0,0,1-1.22-.18,2.08,2.08,0,0,1-.87-.56,2.34,2.34,0,0,1-.52-1,4.6,4.6,0,0,1-.18-1.37,4.4,4.4,0,0,1,.19-1.31,2.79,2.79,0,0,1,.55-1,2.56,2.56,0,0,1,.91-.63,3.8,3.8,0,0,1,2.46,0,2.06,2.06,0,0,1,.87.55,2.37,2.37,0,0,1,.53,1,4.5,4.5,0,0,1,.18,1.35Zm-6.59,2.91a.11.11,0,0,1,0,.08.14.14,0,0,1-.1.06l-.19,0h-.59l-.19,0a.15.15,0,0,1-.09-.06.09.09,0,0,1,0-.08V35.9a.12.12,0,0,1,0-.09l.1-.06.18,0,.3,0,.29,0,.19,0a.29.29,0,0,1,.1.06.16.16,0,0,1,0,.09v5.67ZM119.94,40a1.12,1.12,0,0,0-.06-.38.71.71,0,0,0-.21-.27.73.73,0,0,0-.34-.17,2,2,0,0,0-.54-.06h-.73v1.7h.88a1.34,1.34,0,0,0,.43,0,.86.86,0,0,0,.3-.16.57.57,0,0,0,.2-.26.78.78,0,0,0,.07-.35Zm-.31-2.57a.85.85,0,0,0,0-.33.59.59,0,0,0-.17-.24.74.74,0,0,0-.28-.14,1.36,1.36,0,0,0-.45-.06h-.62V38.2h.68a1.27,1.27,0,0,0,.43-.06.78.78,0,0,0,.26-.17.61.61,0,0,0,.15-.26.76.76,0,0,0,0-.3Zm1.58,2.52a2,2,0,0,1-.08.58,2.09,2.09,0,0,1-.25.47,1.72,1.72,0,0,1-.37.34,2.14,2.14,0,0,1-.48.23,2.33,2.33,0,0,1-.55.14,4.43,4.43,0,0,1-.66.05h-1.59a.37.37,0,0,1-.26-.09.38.38,0,0,1-.11-.3V36.12a.38.38,0,0,1,.11-.3.37.37,0,0,1,.26-.09h1.5a4.22,4.22,0,0,1,.94.09,2.1,2.1,0,0,1,.64.28,1.35,1.35,0,0,1,.41.48,1.59,1.59,0,0,1,.14.68,1.41,1.41,0,0,1-.22.76,1.19,1.19,0,0,1-.27.28,1.31,1.31,0,0,1-.35.19,1.74,1.74,0,0,1,.47.16,1.57,1.57,0,0,1,.38.3,1.67,1.67,0,0,1,.25.43,1.63,1.63,0,0,1,.09.55Z"/><path class="cls-1" d="M129.07,43.08v.07s0,0,0,0l0,0h-.48v1.5l0,0h-.3l0,0v-1.5h-.48l0,0s0,0,0,0V43s0,0,0,0l0,0H129l0,0s0,0,0,0v.08Zm-1.58,1.4v.06s0,0,0,0a0,0,0,0,1,0,0l0,0a.15.15,0,0,1-.06,0l-.11,0-.15,0-.18,0a.93.93,0,0,1-.34-.06.66.66,0,0,1-.42-.46,1.27,1.27,0,0,1-.06-.41,1.3,1.3,0,0,1,.07-.41.87.87,0,0,1,.17-.3.7.7,0,0,1,.27-.19.78.78,0,0,1,.35-.07l.14,0a.5.5,0,0,1,.13,0l.11.05.07,0,0,0v.21a.07.07,0,0,1,0,0s0,0,0,0h0l-.05,0-.09-.05-.12-.06-.17,0a.38.38,0,0,0-.19,0,.37.37,0,0,0-.15.13.53.53,0,0,0-.09.2,1.23,1.23,0,0,0,0,.54.42.42,0,0,0,.1.2.36.36,0,0,0,.14.11.45.45,0,0,0,.2,0l.17,0,.13-.05.08-.06,0,0h0v0a.43.43,0,0,1,0,0v.08Zm-1.74-.41a1,1,0,0,1,0,.31.86.86,0,0,1-.15.22.57.57,0,0,1-.24.14,1,1,0,0,1-.32,0,1,1,0,0,1-.31,0,.78.78,0,0,1-.24-.13.64.64,0,0,1-.14-.22.75.75,0,0,1,0-.31V43s0,0,0,0h.29s0,0,0,0v1.11a.58.58,0,0,0,0,.19.54.54,0,0,0,.07.13.57.57,0,0,0,.13.08l.15,0,.16,0a.5.5,0,0,0,.12-.08.54.54,0,0,0,.07-.13.47.47,0,0,0,0-.17V43s0,0,0,0h.29l0,0v1.12Zm-2.27-.24a1,1,0,0,0,0-.25.44.44,0,0,0-.1-.19.45.45,0,0,0-.17-.13.72.72,0,0,0-.28,0h-.19v1.24h.2a.62.62,0,0,0,.25,0,.36.36,0,0,0,.18-.12.42.42,0,0,0,.1-.2.77.77,0,0,0,0-.27Zm.38,0a1.31,1.31,0,0,1-.06.43.91.91,0,0,1-.19.3.72.72,0,0,1-.3.16,1.33,1.33,0,0,1-.42.06h-.44a.11.11,0,0,1-.08,0,.12.12,0,0,1,0-.09V43a.12.12,0,0,1,0-.09.11.11,0,0,1,.08,0h.47a1.29,1.29,0,0,1,.42.06.92.92,0,0,1,.29.17.88.88,0,0,1,.17.28,1.12,1.12,0,0,1,.06.38Zm-2.3,0a1.84,1.84,0,0,0,0-.26,1,1,0,0,0-.08-.21.47.47,0,0,0-.15-.13.48.48,0,0,0-.22,0,.39.39,0,0,0-.23,0,.48.48,0,0,0-.23.34,1,1,0,0,0,0,.24,1.12,1.12,0,0,0,0,.27.65.65,0,0,0,.07.21.47.47,0,0,0,.15.13.5.5,0,0,0,.23,0,.43.43,0,0,0,.23,0,.32.32,0,0,0,.14-.14.44.44,0,0,0,.08-.2,1,1,0,0,0,0-.25Zm.39,0a1.31,1.31,0,0,1-.06.41.74.74,0,0,1-.17.3.58.58,0,0,1-.27.19.94.94,0,0,1-.39.07,1.06,1.06,0,0,1-.37-.06.56.56,0,0,1-.26-.17.55.55,0,0,1-.16-.29,1.33,1.33,0,0,1-.06-.42,1.25,1.25,0,0,1,.06-.4.74.74,0,0,1,.17-.3.7.7,0,0,1,.28-.19.89.89,0,0,1,.38-.07,1.06,1.06,0,0,1,.37.06.56.56,0,0,1,.26.17.63.63,0,0,1,.16.29,1.22,1.22,0,0,1,.06.41Zm-2.45-.35a.25.25,0,0,0,0-.16.22.22,0,0,0-.13-.09H119v.52h.19l.14,0a.31.31,0,0,0,.1-.05l.06-.09a.36.36,0,0,0,0-.1Zm.48,1.24s0,0,0,0h-.35s0,0,0,0l0,0-.16-.41-.06-.12-.06-.09-.08,0a.2.2,0,0,0-.11,0H119v.72l0,0h-.3l0,0V43a.12.12,0,0,1,0-.09.1.1,0,0,1,.08,0h.67a.59.59,0,0,1,.2.06.4.4,0,0,1,.15.1.33.33,0,0,1,.1.14.6.6,0,0,1,0,.2.78.78,0,0,1,0,.16.46.46,0,0,1-.07.14.52.52,0,0,1-.11.1.51.51,0,0,1-.15.07l.07.05a.23.23,0,0,1,.07.07l.06.09.06.12.15.36a.34.34,0,0,0,0,.08s0,0,0,0Zm-2.12-1.2a.25.25,0,0,0,0-.16.24.24,0,0,0-.08-.09.21.21,0,0,0-.1,0h-.27v.62h.16l.15,0,.1-.07a.33.33,0,0,0,.06-.1.51.51,0,0,0,0-.13Zm.39,0a.76.76,0,0,1,0,.27.48.48,0,0,1-.14.2.58.58,0,0,1-.23.13,1,1,0,0,1-.31,0h-.15v.61l0,0H117l0,0V43.06a.11.11,0,0,1,0-.1.1.1,0,0,1,.09,0h.55l.15,0A.52.52,0,0,1,118,43a.58.58,0,0,1,.15.11.51.51,0,0,1,.09.16.64.64,0,0,1,0,.2Z"/><path class="cls-2" d="M150.22,43.08v.07s0,0,0,0l0,0h-.48v1.5l0,0h-.3l0,0v-1.5h-.48l0,0s0,0,0,0V43s0,0,0,0l0,0h1.34l0,0s0,0,0,0v.08Zm-1.58,1.4v.06s0,0,0,0a0,0,0,0,1,0,0l0,0a.15.15,0,0,1-.06,0l-.11,0-.15,0-.18,0a.93.93,0,0,1-.34-.06.66.66,0,0,1-.42-.46,1.27,1.27,0,0,1-.06-.41,1.3,1.3,0,0,1,.07-.41.87.87,0,0,1,.17-.3.7.7,0,0,1,.27-.19.77.77,0,0,1,.34-.07l.15,0a.5.5,0,0,1,.13,0l.11.05.07,0,0,0v.21a.07.07,0,0,1,0,0s0,0,0,0h0l-.05,0-.09-.05-.12-.06-.17,0a.38.38,0,0,0-.19,0,.37.37,0,0,0-.15.13.53.53,0,0,0-.09.2,1.23,1.23,0,0,0,0,.54.42.42,0,0,0,.1.2.36.36,0,0,0,.14.11.45.45,0,0,0,.2,0l.17,0,.13-.05.08-.06.05,0h0v0a.43.43,0,0,1,0,0v.08Zm-1.74-.41a1,1,0,0,1-.05.31.86.86,0,0,1-.15.22.57.57,0,0,1-.24.14,1,1,0,0,1-.32,0,1,1,0,0,1-.31,0,.78.78,0,0,1-.24-.13.64.64,0,0,1-.14-.22.75.75,0,0,1,0-.31V43s0,0,0,0h.29s0,0,0,0v1.11a.58.58,0,0,0,0,.19.54.54,0,0,0,.07.13.57.57,0,0,0,.13.08l.15,0,.16,0a.5.5,0,0,0,.12-.08.54.54,0,0,0,.07-.13.47.47,0,0,0,0-.17V43s0,0,0,0h.29l0,0v1.12Zm-2.27-.24a1,1,0,0,0,0-.25.44.44,0,0,0-.1-.19.45.45,0,0,0-.17-.13.72.72,0,0,0-.28,0h-.19v1.24h.2a.62.62,0,0,0,.25,0,.36.36,0,0,0,.18-.12.42.42,0,0,0,.1-.2.77.77,0,0,0,0-.27Zm.38,0a1.31,1.31,0,0,1-.06.43.91.91,0,0,1-.19.3.72.72,0,0,1-.3.16,1.33,1.33,0,0,1-.42.06h-.44a.11.11,0,0,1-.08,0,.12.12,0,0,1,0-.09V43a.12.12,0,0,1,0-.09.11.11,0,0,1,.08,0h.47a1.29,1.29,0,0,1,.42.06.92.92,0,0,1,.29.17.88.88,0,0,1,.17.28,1.12,1.12,0,0,1,.06.38Zm-2.3,0a1.84,1.84,0,0,0,0-.26,1,1,0,0,0-.08-.21.47.47,0,0,0-.15-.13.48.48,0,0,0-.22,0,.39.39,0,0,0-.23,0,.48.48,0,0,0-.23.34,1,1,0,0,0,0,.24,1.12,1.12,0,0,0,0,.27.65.65,0,0,0,.07.21.47.47,0,0,0,.15.13.5.5,0,0,0,.23,0,.43.43,0,0,0,.23,0,.32.32,0,0,0,.14-.14.44.44,0,0,0,.08-.2,1,1,0,0,0,0-.25Zm.39,0a1.31,1.31,0,0,1-.06.41.74.74,0,0,1-.17.3.58.58,0,0,1-.27.19.94.94,0,0,1-.39.07,1.06,1.06,0,0,1-.37-.06.52.52,0,0,1-.26-.17.55.55,0,0,1-.16-.29,1.33,1.33,0,0,1-.06-.42,1.25,1.25,0,0,1,.06-.4.74.74,0,0,1,.17-.3.7.7,0,0,1,.28-.19.89.89,0,0,1,.38-.07,1.06,1.06,0,0,1,.37.06.56.56,0,0,1,.26.17.63.63,0,0,1,.16.29,1.22,1.22,0,0,1,.06.41Zm-2.46-.35a.25.25,0,0,0,0-.16.22.22,0,0,0-.13-.09h-.33v.52h.19l.14,0,.1-.05a.7.7,0,0,0,.06-.09.34.34,0,0,0,0-.1Zm.49,1.24s0,0,0,0h-.35s0,0,0,0l0,0-.16-.41-.06-.12a.35.35,0,0,0-.06-.09l-.08,0a.2.2,0,0,0-.11,0h-.11v.72l0,0h-.3l0,0V43a.12.12,0,0,1,0-.09.1.1,0,0,1,.08,0h.67a.59.59,0,0,1,.2.06.4.4,0,0,1,.15.1.45.45,0,0,1,.1.14.6.6,0,0,1,0,.2.78.78,0,0,1,0,.16.46.46,0,0,1-.07.14.52.52,0,0,1-.11.1.51.51,0,0,1-.15.07l.07.05a.23.23,0,0,1,.07.07l.06.09.06.12.15.36a.34.34,0,0,0,0,.08s0,0,0,0ZM139,43.51a.25.25,0,0,0,0-.16.24.24,0,0,0-.08-.09.21.21,0,0,0-.1,0h-.28v.62h.17l.15,0,.1-.07a.33.33,0,0,0,.06-.1.51.51,0,0,0,0-.13Zm.39,0a.76.76,0,0,1-.05.27.48.48,0,0,1-.14.2.58.58,0,0,1-.23.13,1,1,0,0,1-.31,0h-.16v.61l0,0h-.3l0,0V43.06a.11.11,0,0,1,0-.1.1.1,0,0,1,.09,0h.55l.15,0a.52.52,0,0,1,.16.06.58.58,0,0,1,.15.11.51.51,0,0,1,.09.16.64.64,0,0,1,0,.2Z"/><path class="cls-1" d="M122.72,33.53a5.28,5.28,0,0,0,.53-.8,3.7,3.7,0,0,1,.45-.83c-.14.38-.27.77-.43,1.14s-.38.48-.5.73c-.19.45-.18,1.44.43,1.57s1.46-.66,1.68-1.28a2,2,0,0,0,.14-.93,5,5,0,0,1,.22-2.52,7.69,7.69,0,0,0-1.67.34,3.64,3.64,0,0,0-2.34,2.2,1.49,1.49,0,0,0,.3,1.39c.25.24.84.65.92.13a2.28,2.28,0,0,1,.27-1.14Z"/></svg>